HIERARCHY
ROOT Hips
{
	OFFSET -3.958830 18.904000 13.208200
	CHANNELS 6 Xposition Yposition Zposition Zrotation Yrotation Xrotation 
	JOINT LHipJoint
	{
		OFFSET 0.000000 0.000000 0.000000
		CHANNELS 3 Zrotation Yrotation Xrotation
		JOINT LeftUpLeg
		{
			OFFSET 1.800000 -1.400000 0.085000
			CHANNELS 3 Zrotation Yrotation Xrotation
			JOINT LeftLeg
			{
				OFFSET 2.215000 -6.000000 0.000000
				CHANNELS 3 Zrotation Yrotation Xrotation
				JOINT LeftFoot
				{
					OFFSET 2.500000 -6.900000 0.000000
					CHANNELS 3 Zrotation Yrotation Xrotation
					JOINT LeftToeBase
					{
						OFFSET 0.200000 -0.500000 1.950000
						CHANNELS 3 Zrotation Yrotation Xrotation
						End Site
						{
							OFFSET 0.000000 0.000000 0.000000
						}
					}
				}
			}
		}
	}
	JOINT RHipJoint
	{
		OFFSET 0.000000 0.000000 0.000000
		CHANNELS 3 Zrotation Yrotation Xrotation
		JOINT RightUpLeg
		{
			OFFSET -1.800000 -1.400000 0.085000
			CHANNELS 3 Zrotation Yrotation Xrotation
			JOINT RightLeg
			{
				OFFSET -2.215000 -6.000000 0.000000
				CHANNELS 3 Zrotation Yrotation Xrotation
				JOINT RightFoot
				{
					OFFSET -2.500000 -6.900000 0.000000
					CHANNELS 3 Zrotation Yrotation Xrotation
					JOINT RightToeBase
					{
						OFFSET -0.200000 -0.500000 1.950000
						CHANNELS 3 Zrotation Yrotation Xrotation
						End Site
						{
							OFFSET 0.000000 0.000000 0.000000
						}
					}
				}
			}
		}
	}
	JOINT LowerBack
	{
		OFFSET 0.000000 0.000000 0.000000
		CHANNELS 3 Zrotation Yrotation Xrotation
		JOINT Spine
		{
			OFFSET -0.087000 1.940000 -0.288900
			CHANNELS 3 Zrotation Yrotation Xrotation
			JOINT Spine1
			{
				OFFSET 0.000000 1.950000 0.060000
				CHANNELS 3 Zrotation Yrotation Xrotation
				JOINT Neck
				{
					OFFSET 0.000000 0.000000 0.000000
					CHANNELS 3 Zrotation Yrotation Xrotation
					JOINT Neck1
					{
						OFFSET 0.000000 1.600000 0.340000
						CHANNELS 3 Zrotation Yrotation Xrotation
						JOINT Head
						{
							OFFSET 0.000000 1.667000 -0.240000
							CHANNELS 3 Zrotation Yrotation Xrotation
							End Site
							{
								OFFSET 0.000000 0.000000 0.000000
							}
						}
					}
				}
				JOINT LeftShoulder
				{
					OFFSET 0.000000 0.000000 0.000000
					CHANNELS 3 Zrotation Yrotation Xrotation
					JOINT LeftArm
					{
						OFFSET 2.700000 1.550000 -0.730000
						CHANNELS 3 Zrotation Yrotation Xrotation
						JOINT LeftForeArm
						{
							OFFSET 5.450000 0.000000 0.000000
							CHANNELS 3 Zrotation Yrotation Xrotation
							JOINT LeftHand
							{
								OFFSET 3.450000 0.000000 0.000000
								CHANNELS 3 Zrotation Yrotation Xrotation
								JOINT LeftHandIndex1
								{
									OFFSET 0.750000 0.000000 0.000000
									CHANNELS 3 Zrotation Yrotation Xrotation
									End Site
									{
										OFFSET 0.000000 0.000000 0.000000
									}
								}
							}
						}
					}
				}
				JOINT RightShoulder
				{
					OFFSET 0.000000 0.000000 0.000000
					CHANNELS 3 Zrotation Yrotation Xrotation
					JOINT RightArm
					{
						OFFSET -2.700000 1.550000 -0.730000
						CHANNELS 3 Zrotation Yrotation Xrotation
						JOINT RightForeArm
						{
							OFFSET -5.450000 0.000000 0.000000
							CHANNELS 3 Zrotation Yrotation Xrotation
							JOINT RightHand
							{
								OFFSET -3.450000 0.000000 0.000000
								CHANNELS 3 Zrotation Yrotation Xrotation
								JOINT RightHandIndex1
								{
									OFFSET -0.750000 0.000000 0.000000
									CHANNELS 3 Zrotation Yrotation Xrotation
									End Site
									{
										OFFSET 0.000000 0.000000 0.000000
									}
								}
							}
						}
					}
				}
			}
		}
	}
}
MOTION
Frames: 14
Frame Time: 0.016667
-0.015360 17.185550 -3.792200 -3.134099 12.287107 -11.927684 -15.381375 14.135294 3.261306 5.385812 -0.069414 -4.322375 -10.890927 7.093971 12.005036 0.042103 4.862479 3.005202 0.343750 -0.010080 0.190690 17.853140 -10.538651 2.973456 -5.018799 3.978057 -9.005500 15.979217 -11.100488 31.496123 -0.819065 -5.976280 2.437047 -0.077830 0.073410 0.162340 -3.050611 -3.142970 -8.066575 9.307435 -7.400352 45.493827 -18.617095 -0.222649 3.097341 16.484841 -9.852576 -10.682454 -17.294288 6.672031 38.515817 2.675740 -3.893400 -18.337940 -19.755509 7.292533 -3.051301 -50.390575 -4.927935 -5.374241 -62.026968 -73.400174 39.686015 -3.382778 3.580484 0.586990 -0.157340 0.053690 0.154710 -13.565781 7.390085 8.493929 24.372719 9.670406 -14.082317 -59.650444 57.193840 -31.678709 1.570403 -1.088456 -0.066960 0.177250 0.033480 -0.150680 
-0.007800 17.173540 -3.783670 -2.907689 12.952391 -12.038899 -15.402714 14.137605 3.275671 5.435563 -0.046627 -4.056588 -11.318845 7.230605 12.050459 0.052491 4.939912 2.974247 0.364660 0.015110 0.206530 17.836154 -10.496613 2.965905 -5.450407 4.179195 -9.172605 16.262544 -11.321146 32.082234 -0.844625 -6.088220 2.391024 -0.059010 0.067040 0.162420 -3.009313 -3.214590 -8.077444 8.882258 -7.329755 45.387403 -18.819950 -0.213013 3.297185 16.785723 -9.909635 -10.671033 -17.473267 6.637079 38.669912 2.650240 -4.020440 -18.084000 -20.850372 6.943247 -3.055113 -49.610598 -3.992005 -6.453124 -60.223171 -72.545365 37.473447 -3.343053 3.604667 0.587190 -0.157900 0.059760 0.156930 -13.069669 7.712351 8.461367 20.350911 9.271682 -13.130219 -53.136833 50.978150 -24.544743 1.732827 -1.378966 -0.063680 0.180610 0.024850 -0.153030 
0.000180 17.163190 -3.775910 -2.760007 13.604751 -12.127522 -15.405377 14.112152 3.279697 5.491723 -0.041968 -3.855351 -11.664140 7.341775 12.135548 0.054749 4.999769 2.949095 0.386760 0.040780 0.222290 17.836101 -10.487612 2.967517 -5.803363 4.346604 -9.329916 16.515979 -11.523100 32.568277 -0.869226 -6.189807 2.349944 -0.039380 0.061870 0.162660 -3.018791 -3.183866 -8.082076 8.792443 -7.339364 45.122807 -19.069826 -0.237879 3.728012 16.905412 -9.875001 -10.686251 -17.482933 6.533923 38.820861 2.767690 -4.164190 -17.885710 -21.739372 6.407972 -2.944839 -49.037703 -3.215080 -7.509504 -58.476778 -71.895029 35.413065 -3.302189 3.627368 0.588910 -0.157820 0.065040 0.159950 -12.404156 8.034702 8.499721 16.533052 8.896021 -12.103521 -47.886988 44.960383 -19.109913 1.858053 -1.542234 -0.061460 0.184490 0.016190 -0.156100 
0.008580 17.154510 -3.767980 -2.653182 14.232517 -12.181059 -15.394862 14.065533 3.278274 5.525770 -0.048623 -3.689516 -11.951539 7.428491 12.209252 0.050385 5.044688 2.928738 0.402790 0.061980 0.232140 17.847966 -10.504790 2.973141 -6.116446 4.479181 -9.488701 16.716353 -11.698662 32.975600 -0.889288 -6.278513 2.313747 -0.020840 0.059680 0.160700 -3.064468 -3.075811 -8.082359 8.924404 -7.382365 44.710657 -19.332310 -0.260857 4.320673 16.879152 -9.754668 -10.717761 -17.335083 6.376893 39.020090 2.958100 -4.312550 -17.695440 -22.468073 5.745459 -2.751827 -48.604147 -2.572843 -8.510931 -56.822822 -71.394639 33.527135 -3.264146 3.645188 0.590360 -0.156280 0.068090 0.161390 -11.596439 8.341664 8.591555 12.909675 8.501627 -11.050848 -43.454151 39.410796 -14.935650 1.954476 -1.626619 -0.062540 0.191310 0.012150 -0.159050 
0.016580 17.147340 -3.760380 -2.572975 14.849793 -12.212227 -15.373528 14.000890 3.271265 5.525618 -0.065288 -3.545781 -12.169560 7.487519 12.270153 0.045627 5.069786 2.915190 0.420050 0.084250 0.243920 17.869848 -10.542991 2.982774 -6.411858 4.582411 -9.635701 16.913074 -11.858550 33.294872 -0.909007 -6.356616 2.280912 -0.003930 0.055690 0.159320 -3.141073 -2.903452 -8.079177 9.219611 -7.480415 44.207696 -19.650570 -0.303523 5.040561 16.757452 -9.565868 -10.783302 -17.050393 6.198752 39.248315 3.226160 -4.431090 -17.571260 -22.990616 5.012323 -2.485619 -48.291134 -2.023517 -9.464018 -55.415424 -71.028246 31.910774 -3.223756 3.665082 0.591520 -0.156550 0.072580 0.162770 -10.793792 8.640343 8.747929 9.691578 8.158257 -10.025792 -39.698143 34.334299 -11.745639 2.034085 -1.667558 -0.061090 0.195970 0.006220 -0.161400 
0.024820 17.142160 -3.752970 -2.526580 15.450951 -12.214865 -15.344613 13.925590 3.259490 5.499788 -0.088866 -3.424867 -12.314403 7.519201 12.316087 0.041437 5.076345 2.909069 0.438510 0.108080 0.256310 17.898818 -10.594682 2.995499 -6.685874 4.660562 -9.782254 17.113873 -12.003171 33.527755 -0.928158 -6.423584 2.252723 0.011690 0.050880 0.158330 -3.239873 -2.690779 -8.073673 9.654538 -7.642547 43.635948 -20.011446 -0.372593 5.813136 16.573494 -9.354753 -10.871307 -16.716956 6.031795 39.504021 3.535480 -4.527930 -17.483400 -23.364024 4.266033 -2.169975 -48.073381 -1.514351 -10.367310 -54.215091 -70.762880 30.519275 -3.180483 3.686546 0.592280 -0.158130 0.078590 0.165810 -10.009954 8.921219 8.935499 6.823173 7.872211 -9.038089 -36.429062 29.791901 -9.284377 2.101086 -1.680528 -0.057460 0.199130 -0.002560 -0.162130 
0.032200 17.137400 -3.744870 -2.466284 16.037664 -12.138340 -15.313777 13.844005 3.246866 5.430912 -0.119356 -3.357658 -12.437013 7.531576 12.326417 0.038250 5.069511 2.908059 0.454070 0.129240 0.265180 17.929773 -10.649895 3.010162 -6.980390 4.729803 -9.978595 17.345439 -12.145628 33.700885 -0.945687 -6.484172 2.227311 0.024460 0.046930 0.158410 -3.344938 -2.462670 -8.070690 10.109390 -7.776298 42.974064 -20.335071 -0.408532 6.535185 16.334635 -9.088944 -10.961713 -16.278136 5.847374 39.834794 3.845280 -4.603030 -17.344060 -23.614673 3.552848 -1.831369 -47.911193 -1.024924 -11.162668 -53.242026 -70.513825 29.351256 -3.141083 3.707268 0.591560 -0.159150 0.084720 0.170040 -9.239591 9.143522 9.125332 4.329319 7.620114 -8.099550 -33.575824 25.830481 -7.383686 2.156817 -1.673606 -0.052630 0.200900 -0.010680 -0.161450 
0.038610 17.134160 -3.736950 -2.403956 16.602411 -12.051727 -15.283936 13.764694 3.233589 5.343155 -0.146326 -3.290378 -12.515810 7.525945 12.306042 0.036154 5.053251 2.911361 0.469320 0.150220 0.273950 17.960026 -10.703960 3.024493 -7.268636 4.784296 -10.157889 17.583481 -12.277888 33.819884 -0.963434 -6.537042 2.204829 0.035810 0.042030 0.158990 -3.447934 -2.240384 -8.068704 10.544713 -7.898202 42.331078 -20.632104 -0.427550 7.233261 16.089566 -8.796795 -11.069081 -15.792829 5.664252 40.225131 4.144610 -4.653300 -17.248330 -23.793355 2.844019 -1.481205 -47.773288 -0.570212 -11.899193 -52.408492 -70.313361 28.338194 -3.100767 3.727057 0.591980 -0.161470 0.092920 0.175400 -8.525848 9.367997 9.325553 2.209726 7.380208 -7.269264 -31.122257 22.378248 -5.925015 2.204861 -1.654715 -0.047140 0.202060 -0.020310 -0.160060 
0.044720 17.131770 -3.729230 -2.344706 17.132010 -11.953570 -15.254605 13.686747 3.219798 5.238423 -0.170104 -3.224160 -12.564196 7.508927 12.263480 0.032151 5.030805 2.916565 0.482570 0.169420 0.281640 17.990191 -10.756714 3.038499 -7.554509 4.829063 -10.330258 17.826975 -12.401634 33.897011 -0.979205 -6.583374 2.184789 0.046270 0.036600 0.157660 -3.549994 -2.022376 -8.067468 10.991625 -8.013218 41.707009 -20.922678 -0.432527 7.869667 15.848022 -8.513245 -11.156631 -15.314914 5.490997 40.635734 4.437520 -4.694980 -17.214450 -23.892442 2.217753 -1.165306 -47.656597 -0.183843 -12.526103 -51.649378 -70.050541 27.404855 -3.064911 3.740780 0.593350 -0.164860 0.100590 0.179490 -7.902340 9.535190 9.500057 0.431607 7.218808 -6.521931 -28.957654 19.397397 -4.787726 2.245593 -1.626918 -0.043050 0.204100 -0.028720 -0.159220 
0.050240 17.130290 -3.722220 -2.273608 17.611383 -11.856147 -15.227037 13.614165 3.205699 5.108392 -0.189399 -3.154650 -12.566882 7.482260 12.220229 0.026019 5.004078 2.923602 0.492610 0.185550 0.286510 18.018895 -10.807430 3.050881 -7.823543 4.866215 -10.488105 18.037950 -12.507492 33.957166 -0.992593 -6.622810 2.167832 0.055210 0.032270 0.154630 -3.646814 -1.816690 -8.065696 11.406984 -8.106320 41.142812 -21.198294 -0.416502 8.448201 15.618311 -8.242530 -11.238529 -14.856856 5.327624 41.026511 4.721950 -4.726640 -17.216920 -23.947617 1.645295 -0.870242 -47.548890 0.151139 -13.062822 -51.097422 -69.879581 26.700719 -3.032731 3.752102 0.595560 -0.168400 0.106870 0.182730 -7.348937 9.681064 9.656205 -1.070306 7.063453 -5.871588 -27.041096 16.872113 -3.898365 2.278685 -1.593670 -0.040950 0.207740 -0.034650 -0.158740 
0.055510 17.129180 -3.715910 -2.215598 18.049939 -11.770171 -15.201887 13.547210 3.191423 4.999361 -0.206528 -3.089208 -12.566498 7.458518 12.187178 0.023695 4.978850 2.930676 0.504340 0.202230 0.294050 18.045431 -10.852304 3.063178 -8.079661 4.900240 -10.621712 18.266217 -12.612285 33.991940 -1.007361 -6.659611 2.151226 0.063170 0.026160 0.153740 -3.736102 -1.628967 -8.064821 11.804041 -8.187807 40.646408 -21.447154 -0.388714 8.962346 15.406368 -7.987662 -11.312510 -14.422737 5.155815 41.381873 4.999770 -4.758500 -17.274510 -23.980906 1.131377 -0.594049 -47.457482 0.445532 -13.528746 -50.689624 -69.806175 26.175846 -3.001331 3.765135 0.597830 -0.173180 0.115270 0.186530 -6.856797 9.805620 9.790309 -2.352188 6.902886 -5.312019 -25.352878 14.741204 -3.200775 2.308133 -1.560989 -0.036550 0.209060 -0.043020 -0.157810 
0.060480 17.128440 -3.709900 -2.130519 18.430912 -11.679775 -15.181396 13.488399 3.180802 4.876407 -0.218711 -3.013263 -12.576988 7.437256 12.141304 0.021454 4.956661 2.937034 0.516660 0.218040 0.302600 18.067405 -10.890280 3.072650 -8.343425 4.935264 -10.747567 18.463490 -12.705595 34.036602 -1.021731 -6.693420 2.136568 0.070310 0.019360 0.153320 -3.810532 -1.467436 -8.065972 12.105700 -8.211914 40.205762 -21.633575 -0.326754 9.403832 15.215254 -7.723991 -11.384806 -13.974190 4.976984 41.769219 5.228610 -4.777710 -17.361740 -24.032274 0.639052 -0.336534 -47.358931 0.719643 -13.957319 -50.222369 -69.700684 25.618556 -2.971023 3.775991 0.601930 -0.178310 0.124040 0.190740 -6.391498 9.938363 9.908594 -3.452514 6.739255 -4.847000 -23.887685 12.907455 -2.651450 2.332369 -1.528299 -0.032510 0.210160 -0.051580 -0.158020 
0.065340 17.128110 -3.704220 -2.025174 18.780650 -11.592957 -15.165655 13.438434 3.173944 4.752483 -0.225579 -2.928335 -12.605785 7.422842 12.088735 0.019848 4.938147 2.941381 0.527030 0.231910 0.310190 18.084406 -10.921448 3.079171 -8.616703 4.958323 -10.846492 18.647239 -12.786581 34.051838 -1.033615 -6.721172 2.124293 0.076040 0.011710 0.151710 -3.870065 -1.333631 -8.069037 12.314503 -8.189035 39.815358 -21.745884 -0.239847 9.790047 15.040134 -7.452510 -11.462971 -13.519839 4.786239 42.209644 5.416150 -4.802190 -17.439380 -24.115974 0.144231 -0.085116 -47.263839 0.980642 -14.368758 -49.664734 -69.578322 25.005883 -2.941771 3.784786 0.606140 -0.183730 0.131740 0.193040 -5.926774 10.097474 10.016415 -4.438480 6.546176 -4.470039 -22.618085 11.312936 -2.214422 2.353304 -1.495416 -0.028830 0.210790 -0.058440 -0.159120 
0.070570 17.128210 -3.699730 -1.932920 19.097748 -11.547823 -15.153402 13.398614 3.167848 4.637711 -0.227753 -2.825774 -12.607645 7.409079 12.054157 0.021975 4.919673 2.945785 0.537830 0.246930 0.318400 18.097551 -10.946694 3.084457 -8.880797 4.972458 -10.896926 18.833106 -12.866365 34.056034 -1.045615 -6.748550 2.112044 0.081410 0.002760 0.150360 -3.918297 -1.225614 -8.071603 12.498152 -8.164739 39.535973 -21.831145 -0.153901 10.110208 14.902338 -7.216391 -11.534229 -13.123573 4.598458 42.593745 5.586180 -4.836030 -17.526410 -24.248619 -0.294235 0.133238 -47.148083 1.198648 -14.718644 -49.282616 -69.543640 24.583230 -2.911975 3.796641 0.608620 -0.189730 0.139950 0.195130 -5.494064 10.255476 10.114689 -5.334995 6.327516 -4.153100 -21.485795 9.926477 -1.860893 2.373689 -1.466125 -0.023260 0.209350 -0.066940 -0.159150 
